<svg width="338" height="34" viewBox="0 0 338 34" fill="none" xmlns="http://www.w3.org/2000/svg">
<path d="M0 32.861H6.20289H17.6973V28.6239V27.8939L15.0539 27.913L8.31187 27.9225L16.6714 8.47887L13.799 2.13762" fill="url(#paint0_linear_1_33)"/>
<path d="M35.1274 32.861L20.5029 0.46283H14.5768L28.9054 32.861H35.1274Z" fill="url(#paint1_linear_1_33)"/>
<path d="M217.091 32.861H223.294H234.789V28.6239V27.8939L232.145 27.913L225.408 27.9225L233.763 8.47887L230.89 2.13762" fill="url(#paint2_linear_1_33)"/>
<path d="M252.219 32.861L237.594 0.46283H231.673L246.002 32.861H252.219Z" fill="url(#paint3_linear_1_33)"/>
<path d="M77.2498 0.46283L63.1311 32.861H57.2049L43.0433 0.46283H49.5706L60.3541 25.4557L71.2282 0.46283H77.245H77.2498Z" fill="url(#paint4_linear_1_33)"/>
<path d="M97.6573 5.55396H86.9215V0.46283H114.415V5.55396H103.679V32.861H97.662V5.55396H97.6573Z" fill="url(#paint5_linear_1_33)"/>
<path d="M134.87 31.1719C132.217 29.7357 130.132 27.746 128.624 25.2028C127.111 22.6596 126.358 19.8111 126.358 16.6619C126.358 13.5128 127.111 10.669 128.624 8.121C130.137 5.57782 132.217 3.58336 134.87 2.15193C137.523 0.715722 140.5 0 143.802 0C147.104 0 150.081 0.715722 152.734 2.15193C155.387 3.58814 157.472 5.56828 158.985 8.09715C160.497 10.626 161.251 13.4841 161.251 16.6571C161.251 19.8301 160.493 22.6882 158.985 25.2219C157.472 27.7507 155.392 29.7357 152.734 31.1671C150.081 32.6033 147.104 33.319 143.802 33.319C140.5 33.319 137.523 32.6033 134.87 31.1671V31.1719ZM149.633 26.5913C151.36 25.6179 152.72 24.2628 153.708 22.5165C154.695 20.7749 155.187 18.8234 155.187 16.6619C155.187 14.5004 154.69 12.5489 153.708 10.8073C152.72 9.06575 151.36 7.70589 149.633 6.73251C147.905 5.75913 145.959 5.27722 143.802 5.27722C141.645 5.27722 139.699 5.7639 137.971 6.73251C136.244 7.70589 134.884 9.06098 133.896 10.8073C132.909 12.5489 132.417 14.5052 132.417 16.6619C132.417 18.8186 132.909 20.7749 133.896 22.5165C134.884 24.2581 136.239 25.6179 137.971 26.5913C139.699 27.5647 141.641 28.0514 143.802 28.0514C145.963 28.0514 147.905 27.5647 149.633 26.5913Z" fill="url(#paint6_linear_1_33)"/>
<path d="M198.488 1.85132C200.573 2.77698 202.166 4.10345 203.278 5.83071C204.39 7.55798 204.943 9.6097 204.943 11.9859C204.943 14.3621 204.39 16.3756 203.278 18.1172C202.166 19.8588 200.573 21.1948 198.488 22.1204C196.402 23.0461 193.959 23.5089 191.149 23.5089H183.834V32.8562H177.818V0.458054H191.149C193.955 0.458054 196.402 0.920886 198.488 1.84655V1.85132ZM196.846 16.7526C198.201 15.6408 198.884 14.0519 198.884 11.9859C198.884 9.91984 198.206 8.33095 196.846 7.2192C195.486 6.10746 193.497 5.55396 190.877 5.55396H183.844V18.4226H190.877C193.501 18.4226 195.491 17.8691 196.846 16.7573V16.7526Z" fill="url(#paint7_linear_1_33)"/>
<path d="M285.567 32.861L278.949 23.3753C278.672 23.404 278.252 23.423 277.698 23.423H270.384V32.8657H264.367V0.467606H277.698C280.504 0.467606 282.952 0.930423 285.037 1.85608C287.122 2.78175 288.716 4.10822 289.827 5.83549C290.939 7.56275 291.493 9.61447 291.493 11.9907C291.493 14.3668 290.896 16.5283 289.713 18.2842C288.525 20.0449 286.821 21.3522 284.598 22.2206L292.051 32.8657H285.571L285.567 32.861ZM283.391 7.2192C282.031 6.10746 280.041 5.55396 277.422 5.55396H270.389V18.4655H277.422C280.046 18.4655 282.036 17.9025 283.391 16.7764C284.746 15.6504 285.428 14.0519 285.428 11.9859C285.428 9.91984 284.751 8.33095 283.391 7.2192Z" fill="url(#paint8_linear_1_33)"/>
<path d="M319.539 19.3005L314.4 24.5777V32.861H308.384V0.46283H314.4V17.077L330.413 0.46283H337.17L323.562 14.9489L338 32.861H330.967L319.534 19.3005H319.539Z" fill="url(#paint9_linear_1_33)"/>
<defs>
<linearGradient id="paint0_linear_1_33" x1="2.18055" y1="6.5369" x2="14.7772" y2="35.4614" gradientUnits="userSpaceOnUse">
<stop stop-color="#C6C6C6"/>
<stop offset="0.38" stop-color="#979797"/>
<stop offset="1" stop-color="#444443"/>
</linearGradient>
<linearGradient id="paint1_linear_1_33" x1="17.2345" y1="2.3905" x2="33.1473" y2="32.7942" gradientUnits="userSpaceOnUse">
<stop stop-color="#C6C6C6"/>
<stop offset="0.38" stop-color="#979797"/>
<stop offset="1" stop-color="#444443"/>
</linearGradient>
<linearGradient id="paint2_linear_1_33" x1="229.826" y1="32.6129" x2="220.14" y2="6.31263" gradientUnits="userSpaceOnUse">
<stop stop-color="#7F3711"/>
<stop offset="0.44" stop-color="#AD5414"/>
<stop offset="1" stop-color="#EF7D19"/>
</linearGradient>
<linearGradient id="paint3_linear_1_33" x1="248.874" y1="32.3791" x2="235.037" y2="0.978145" gradientUnits="userSpaceOnUse">
<stop stop-color="#7F3711"/>
<stop offset="0.49" stop-color="#AD500E"/>
<stop offset="1" stop-color="#E36E0B"/>
</linearGradient>
<linearGradient id="paint4_linear_1_33" x1="58.9274" y1="-0.167002" x2="74.0577" y2="30.5086" gradientUnits="userSpaceOnUse">
<stop stop-color="#C6C6C6"/>
<stop offset="0.38" stop-color="#979797"/>
<stop offset="1" stop-color="#444443"/>
</linearGradient>
<linearGradient id="paint5_linear_1_33" x1="94.7896" y1="0.219486" x2="115.66" y2="30.7234" gradientUnits="userSpaceOnUse">
<stop stop-color="#C6C6C6"/>
<stop offset="0.38" stop-color="#979797"/>
<stop offset="1" stop-color="#444443"/>
</linearGradient>
<linearGradient id="paint6_linear_1_33" x1="135.738" y1="5.06728" x2="152.92" y2="29.7452" gradientUnits="userSpaceOnUse">
<stop stop-color="#C6C6C6"/>
<stop offset="0.38" stop-color="#979797"/>
<stop offset="1" stop-color="#444443"/>
</linearGradient>
<linearGradient id="paint7_linear_1_33" x1="194.837" y1="29.7357" x2="184.684" y2="4.58536" gradientUnits="userSpaceOnUse">
<stop stop-color="#7F3711"/>
<stop offset="0.49" stop-color="#AD500E"/>
<stop offset="1" stop-color="#E36E0B"/>
</linearGradient>
<linearGradient id="paint8_linear_1_33" x1="283.543" y1="29.6164" x2="266.538" y2="2.51932" gradientUnits="userSpaceOnUse">
<stop stop-color="#7F3711"/>
<stop offset="0.49" stop-color="#AD500E"/>
<stop offset="1" stop-color="#E36E0B"/>
</linearGradient>
<linearGradient id="paint9_linear_1_33" x1="331.792" y1="28.4999" x2="311.099" y2="1.32169" gradientUnits="userSpaceOnUse">
<stop stop-color="#7F3711"/>
<stop offset="0.49" stop-color="#AD500E"/>
<stop offset="1" stop-color="#E36E0B"/>
</linearGradient>
</defs>
</svg>
