<svg width="44" height="22" viewBox="0 0 44 22" fill="none" xmlns="http://www.w3.org/2000/svg">
<path d="M0 22H4.20568H12V19.1029V18.6053L10.2073 18.6184L5.63789 18.6282L11.305 5.33749L9.35643 1" fill="url(#paint0_linear_2_5)"/>
<path d="M24 22L14.0359 0H10L19.7618 22H24Z" fill="url(#paint1_linear_2_5)"/>
<path d="M39.7153 0.943087C41.098 1.57073 42.1565 2.47154 42.8939 3.64553C43.6313 4.81951 44 6.21138 44 7.82439C44 9.4374 43.6313 10.8065 42.8939 11.9902C42.1565 13.174 41.098 14.0813 39.7153 14.7089C38.3327 15.3366 36.7085 15.652 34.8458 15.652H29.9922V22H26V0H34.8458C36.7085 0 38.3327 0.315445 39.7153 0.943087ZM38.6251 11.0634C39.5246 10.3089 39.976 9.22927 39.976 7.82765C39.976 6.42602 39.5246 5.34634 38.6251 4.59187C37.7224 3.8374 36.4033 3.46017 34.6615 3.46017H29.9922V12.1984H34.6615C36.4033 12.1984 37.7224 11.8211 38.6251 11.0667V11.0634Z" fill="url(#paint2_linear_2_5)"/>
<defs>
<linearGradient id="paint0_linear_2_5" x1="10.1488" y1="22.874" x2="1.75029" y2="5.69114" gradientUnits="userSpaceOnUse">
<stop stop-color="#7F3812"/>
<stop offset="0.5" stop-color="#AD5010"/>
<stop offset="1" stop-color="#E06B0E"/>
</linearGradient>
<linearGradient id="paint1_linear_2_5" x1="21.2463" y1="20.5886" x2="11.745" y2="-0.699509" gradientUnits="userSpaceOnUse">
<stop stop-color="#7F3812"/>
<stop offset="0.5" stop-color="#AD5010"/>
<stop offset="1" stop-color="#E06B0E"/>
</linearGradient>
<linearGradient id="paint2_linear_2_5" x1="34.8522" y1="1.69431" x2="35.0918" y2="22.2438" gradientUnits="userSpaceOnUse">
<stop stop-color="#C6C5C5"/>
<stop offset="0.38" stop-color="#979696"/>
<stop offset="1" stop-color="#444443"/>
</linearGradient>
</defs>
</svg>
