<svg width="154" height="38" viewBox="0 0 154 38" fill="none" xmlns="http://www.w3.org/2000/svg">
<path d="M18.4328 37.9767L8.66423 11.9404C8.40137 11.2373 8.37508 10.4651 8.59194 9.74555L11.5294 0.0032959L26.7063 37.98" fill="url(#paint0_linear_34_59)"/>
<path d="M0 37.9768L1.85645 32.0263C2.07988 31.3067 2.74689 30.8204 3.49932 30.8204L10.3304 30.8401L8.27352 37.9768" fill="#D24C18"/>
<path d="M32.9068 6.8475L18.5612 6.8015C17.8679 6.79822 17.2436 6.38093 16.9807 5.73692L14.6216 0L42.6359 0.180712V37.9734H34.6219V8.56267C34.6187 7.61637 33.8531 6.85079 32.9068 6.8475Z" fill="url(#paint1_linear_34_59)"/>
<path d="M55.8108 12.152L53.9025 19.5446C53.686 20.3705 53.4776 21.0039 53.2852 21.4449C53.0927 21.8859 52.8762 22.1906 52.6517 22.351C52.4272 22.5113 52.1706 22.5915 51.882 22.5915C51.7537 22.5915 51.6415 22.5835 51.5372 22.5594C51.433 22.5354 51.3368 22.5033 51.2486 22.4712V21.8218C51.3448 21.8618 51.441 21.9019 51.5372 21.926C51.6254 21.9501 51.7216 21.9661 51.8178 21.9661C52.0263 21.9661 52.2107 21.8779 52.3711 21.6935C52.5314 21.5091 52.6678 21.2284 52.8041 20.8516C52.9404 20.4747 53.0767 19.9776 53.213 19.3682L51 12.152H51.7136L53.3012 17.4519C53.3252 17.5161 53.3493 17.5963 53.3733 17.6764C53.3974 17.7566 53.4215 17.8689 53.4535 17.9891C53.4856 18.1174 53.5177 18.2617 53.5578 18.4381H53.6219C53.6379 18.3098 53.662 18.1896 53.6861 18.0853C53.7101 17.9811 53.7342 17.8689 53.7582 17.7646C53.7823 17.6604 53.8063 17.5562 53.8384 17.4439L55.1293 12.152H55.8108Z" fill="#A4A2A1"/>
<path d="M62.8594 12.6415C62.3783 12.6415 61.9614 12.7697 61.6246 13.0263C61.2799 13.2829 61.0072 13.6277 60.7988 14.0687C60.5903 14.5097 60.43 15.0068 60.3337 15.568C60.2375 16.1293 60.1894 16.7066 60.1894 17.3C60.1894 18.2381 60.3017 19.0559 60.5262 19.7535C60.7507 20.451 61.0634 20.9963 61.4803 21.3811C61.8892 21.766 62.3783 21.9584 62.9316 21.9584C63.2443 21.9584 63.5249 21.9184 63.7735 21.8382C64.03 21.758 64.2465 21.6698 64.4229 21.5656V22.215C64.2225 22.3353 63.99 22.4235 63.7173 22.4956C63.4527 22.5598 63.1721 22.5999 62.8674 22.5999C62.1779 22.5999 61.5845 22.3834 61.0714 21.9584C60.5582 21.5335 60.1653 20.9241 59.8847 20.1223C59.6041 19.3205 59.4678 18.3824 59.4678 17.2919C59.4678 16.5863 59.5319 15.9208 59.6602 15.2874C59.7885 14.654 59.9889 14.0927 60.2616 13.5956C60.5342 13.0985 60.887 12.7136 61.3119 12.425C61.7369 12.1443 62.25 12 62.8514 12C63.1561 12 63.4447 12.0401 63.7173 12.1123C63.998 12.1924 64.2626 12.3047 64.5272 12.449L64.2465 13.0424C64.022 12.898 63.7895 12.8018 63.549 12.7377C63.3084 12.6735 63.0759 12.6415 62.8594 12.6415Z" fill="#A4A2A1"/>
<path d="M73.2111 22.4555H72.5135V12.8098H70.501C70.4609 13.4031 70.4048 14.0205 70.3487 14.6619C70.2925 15.3034 70.2284 15.9288 70.1723 16.5462C70.1161 17.1636 70.06 17.7248 70.0119 18.246C69.9638 18.7672 69.9157 19.2082 69.8756 19.553C69.7874 20.2425 69.6912 20.8118 69.5869 21.2528C69.4827 21.6938 69.3223 22.0225 69.1139 22.239C68.9054 22.4555 68.6087 22.5597 68.2319 22.5597C68.1036 22.5597 67.9913 22.5517 67.8951 22.5277C67.7989 22.5036 67.7267 22.4715 67.6626 22.4395V21.8221C67.7348 21.8541 67.8069 21.8782 67.8791 21.9023C67.9432 21.9263 68.0234 21.9343 68.1116 21.9343C68.3441 21.9343 68.5285 21.8622 68.6649 21.7259C68.8012 21.5895 68.9054 21.333 68.9936 20.9722C69.0818 20.6113 69.162 20.0902 69.2341 19.4247C69.2822 19.0077 69.3304 18.5267 69.3785 17.9814C69.4266 17.4362 69.4827 16.8509 69.5388 16.2174C69.5949 15.584 69.6511 14.9265 69.7152 14.237C69.7794 13.5474 69.8355 12.8579 69.8916 12.1683H73.2111V22.4555Z" fill="#A4A2A1"/>
<path d="M82.0149 12.152L80.1066 19.5446C79.8901 20.3705 79.6817 21.0039 79.4893 21.4449C79.2968 21.8859 79.0803 22.1906 78.8558 22.351C78.6313 22.5113 78.3747 22.5915 78.0861 22.5915C77.9578 22.5915 77.8456 22.5835 77.7413 22.5594C77.6371 22.5354 77.5409 22.5033 77.4527 22.4712V21.8218C77.5489 21.8618 77.6451 21.9019 77.7413 21.926C77.8295 21.9501 77.9257 21.9661 78.022 21.9661C78.2304 21.9661 78.4148 21.8779 78.5752 21.6935C78.7356 21.5091 78.8719 21.2284 79.0082 20.8516C79.1445 20.4747 79.2808 19.9776 79.4171 19.3682L77.2041 12.152H77.9177L79.5053 17.4519C79.5293 17.5161 79.5534 17.5963 79.5775 17.6764C79.6015 17.7566 79.6256 17.8689 79.6576 17.9891C79.6897 18.1174 79.7218 18.2617 79.7619 18.4381H79.826C79.8421 18.3098 79.8661 18.1896 79.8902 18.0853C79.9142 17.9811 79.9383 17.8689 79.9623 17.7646C79.9864 17.6604 80.0104 17.5562 80.0425 17.4439L81.3334 12.152H82.0149Z" fill="#A4A2A1"/>
<path d="M89.743 12.152V12.7934H86.6881V22.4552H85.9985V12.152H89.743Z" fill="#A4A2A1"/>
<path d="M93.8569 12.1523H94.5304V19.3525C94.5304 19.4808 94.5304 19.6091 94.5304 19.7454C94.5304 19.8817 94.5224 20.026 94.5224 20.1864C94.5224 20.3468 94.5144 20.5231 94.5064 20.7156C94.4984 20.908 94.4823 21.1245 94.4663 21.357H94.5224L98.3951 12.1443H99.2932V22.4475H98.6116V15.0869C98.6116 14.9346 98.6116 14.7822 98.6197 14.6219C98.6277 14.4615 98.6277 14.3011 98.6357 14.1408C98.6437 13.9804 98.6517 13.812 98.6597 13.6437C98.6678 13.4753 98.6838 13.3069 98.6918 13.1465H98.6357L94.7389 22.4395H93.8569V12.1523Z" fill="#A4A2A1"/>
<path d="M56.1236 37.4141L55.2335 33.6696H52.6197L51.7216 37.4141H51L53.4696 27.1108H54.3596L56.8452 37.4141H56.1236ZM55.0972 33.0282L54.1832 29.0031C54.1431 28.8347 54.111 28.6824 54.0789 28.5381C54.0469 28.3937 54.0228 28.2494 53.9907 28.1131C53.9587 27.9768 53.9346 27.8405 53.9106 27.6962C53.8865 27.8405 53.8625 27.9768 53.8384 28.1051C53.8143 28.2414 53.7823 28.3777 53.7582 28.522C53.7342 28.6664 53.6941 28.8267 53.654 28.9871L52.756 33.0201H55.0972V33.0282Z" fill="#A4A2A1"/>
<path d="M60.8306 27.1108H62.9393C63.7652 27.1108 64.3826 27.3113 64.7995 27.7122C65.2164 28.1131 65.4169 28.7145 65.4169 29.5243C65.4169 29.9653 65.3608 30.3582 65.2485 30.7029C65.1363 31.0477 64.9679 31.3283 64.7514 31.5448C64.5349 31.7613 64.2623 31.9056 63.9416 31.9778V32.0099C64.3345 32.1061 64.6472 32.2584 64.9037 32.4749C65.1523 32.6914 65.3367 32.9721 65.457 33.3168C65.5773 33.6616 65.6334 34.0705 65.6334 34.5356C65.6334 35.1209 65.5372 35.6341 65.3447 36.067C65.1523 36.5 64.8717 36.8368 64.5028 37.0693C64.134 37.3018 63.685 37.4221 63.1478 37.4221H60.8386V27.1108H60.8306ZM61.5201 31.6972H62.8752C63.4926 31.6972 63.9496 31.5208 64.2543 31.168C64.559 30.8152 64.7113 30.278 64.7113 29.5644C64.7113 28.947 64.567 28.4899 64.2783 28.1853C63.9897 27.8806 63.5006 27.7282 62.8191 27.7282H61.5281V31.6972H61.5201ZM61.5201 32.3146V36.7967H63.0275C63.6208 36.7967 64.0859 36.6042 64.4146 36.2274C64.7434 35.8505 64.9118 35.2652 64.9118 34.4955C64.9118 33.9743 64.8316 33.5574 64.6632 33.2367C64.4948 32.9159 64.2703 32.6834 63.9656 32.5391C63.669 32.3948 63.3242 32.3226 62.9313 32.3226H61.5201V32.3146Z" fill="#A4A2A1"/>
<path d="M71.9674 37.4141H71.2698V27.7443H69.2012V27.1108H74.0521V27.7443H71.9754V37.4141H71.9674Z" fill="#A4A2A1"/>
<path d="M83.8982 32.2505C83.8982 32.9641 83.8501 33.6376 83.7459 34.2791C83.6416 34.9205 83.4813 35.4818 83.2487 35.9709C83.0162 36.46 82.7115 36.8448 82.3186 37.1335C81.9258 37.4221 81.4447 37.5584 80.8674 37.5584C80.2821 37.5584 79.793 37.4141 79.4001 37.1255C79.0072 36.8368 78.6945 36.4359 78.462 35.9388C78.2294 35.4417 78.0611 34.8724 77.9648 34.239C77.8606 33.6055 77.8125 32.94 77.8125 32.2505C77.8125 31.0798 77.9328 30.1016 78.1653 29.3159C78.3978 28.5301 78.7426 27.9528 79.1996 27.5599C79.6486 27.167 80.2099 26.9746 80.8754 26.9746C81.605 26.9746 82.1984 27.2071 82.6394 27.6642C83.0804 28.1212 83.4011 28.7546 83.6015 29.5564C83.802 30.3422 83.8982 31.2482 83.8982 32.2505ZM78.5341 32.2505C78.5341 33.2447 78.6223 34.0946 78.7987 34.7842C78.9751 35.4737 79.2397 36.011 79.5925 36.3718C79.9453 36.7406 80.3703 36.917 80.8674 36.917C81.3805 36.917 81.8135 36.7406 82.1583 36.3878C82.5031 36.035 82.7596 35.5138 82.928 34.8163C83.0964 34.1187 83.1846 33.2608 83.1846 32.2425C83.1846 30.727 82.9922 29.5805 82.6073 28.7867C82.2224 27.9929 81.6451 27.6 80.8754 27.6C80.3462 27.6 79.9132 27.7764 79.5685 28.1372C79.2237 28.498 78.9591 29.0192 78.7907 29.7088C78.6223 30.3983 78.5341 31.2562 78.5341 32.2505Z" fill="#A4A2A1"/>
<path d="M88.6367 27.1112H89.3102V34.3114C89.3102 34.4397 89.3102 34.568 89.3102 34.7043C89.3102 34.8406 89.3022 34.9849 89.3022 35.1453C89.3022 35.3056 89.2942 35.482 89.2862 35.6744C89.2782 35.8669 89.2621 36.0834 89.2461 36.3159H89.3022L93.1749 27.1031H94.073V37.4063H93.3914V30.0458C93.3914 29.8934 93.3914 29.7411 93.3995 29.5807C93.4075 29.4204 93.4075 29.26 93.4155 29.0996C93.4235 28.9393 93.4315 28.7709 93.4395 28.6025C93.4475 28.4341 93.4636 28.2658 93.4716 28.1054H93.4155L89.5187 37.3983H88.6367V27.1112Z" fill="#A4A2A1"/>
<path d="M102.542 37.4141L99.7999 28.1452H99.7678C99.7838 28.4499 99.7918 28.6984 99.7999 28.9069C99.8079 29.1154 99.8079 29.2837 99.8159 29.412C99.8159 29.5403 99.8159 29.6446 99.8159 29.7087V37.4141H99.1504V27.1108H100.137L102.911 36.4198H102.951L105.725 27.1108H106.735V37.4141H106.054V29.7568C106.054 29.6847 106.054 29.5804 106.054 29.4441C106.054 29.3078 106.062 29.1394 106.062 28.931C106.062 28.7225 106.07 28.4659 106.078 28.1612H106.046L103.304 37.4221H102.542V37.4141Z" fill="#A4A2A1"/>
<path d="M111.802 37.4141V27.1108H116.886V37.4141H116.196V27.7443H112.5V37.4141H111.802Z" fill="#A4A2A1"/>
<path d="M127.694 32.2505C127.694 32.9641 127.646 33.6376 127.541 34.2791C127.437 34.9205 127.277 35.4818 127.044 35.9709C126.812 36.46 126.507 36.8448 126.114 37.1335C125.721 37.4221 125.24 37.5584 124.663 37.5584C124.077 37.5584 123.588 37.4141 123.195 37.1255C122.803 36.8368 122.49 36.4359 122.257 35.9388C122.025 35.4417 121.856 34.8724 121.76 34.239C121.656 33.6055 121.608 32.94 121.608 32.2505C121.608 31.0798 121.728 30.1016 121.961 29.3159C122.193 28.5301 122.538 27.9528 122.995 27.5599C123.444 27.167 124.005 26.9746 124.671 26.9746C125.4 26.9746 125.994 27.2071 126.435 27.6642C126.876 28.1212 127.197 28.7546 127.397 29.5564C127.597 30.3422 127.694 31.2482 127.694 32.2505ZM122.33 32.2505C122.33 33.2447 122.418 34.0946 122.594 34.7842C122.771 35.4737 123.035 36.011 123.388 36.3718C123.741 36.7406 124.166 36.917 124.663 36.917C125.176 36.917 125.609 36.7406 125.954 36.3878C126.298 36.035 126.555 35.5138 126.723 34.8163C126.892 34.1187 126.98 33.2608 126.98 32.2425C126.98 30.727 126.788 29.5805 126.403 28.7867C126.018 27.9929 125.441 27.6 124.671 27.6C124.142 27.6 123.709 27.7764 123.364 28.1372C123.019 28.498 122.754 29.0192 122.586 29.7088C122.418 30.3983 122.33 31.2562 122.33 32.2505Z" fill="#A4A2A1"/>
<path d="M133.996 27.1108C134.959 27.1108 135.672 27.3354 136.137 27.7764C136.602 28.2173 136.835 28.963 136.835 30.0054C136.835 30.5506 136.779 31.0237 136.666 31.4165C136.554 31.8094 136.378 32.1382 136.145 32.3947C135.913 32.6513 135.616 32.8438 135.255 32.964C134.894 33.0923 134.478 33.1484 133.988 33.1484H133.13V37.4141H132.441V27.1108H133.996ZM133.972 27.7362H133.13V32.523H134.004C134.494 32.523 134.894 32.4348 135.207 32.2664C135.52 32.0981 135.752 31.8255 135.905 31.4566C136.057 31.0878 136.137 30.6067 136.137 30.0054C136.137 29.1795 135.961 28.5942 135.608 28.2494C135.255 27.9046 134.702 27.7362 133.972 27.7362Z" fill="#A4A2A1"/>
<path d="M143.055 37.4141H142.358V27.7443H140.289V27.1108H145.14V27.7443H143.063V37.4141H143.055Z" fill="#A4A2A1"/>
<path d="M153.278 37.4141L152.388 33.6696H149.774L148.876 37.4141H148.155L150.624 27.1108H151.514L154 37.4141H153.278ZM152.252 33.0282L151.338 29.0031C151.298 28.8347 151.266 28.6824 151.234 28.5381C151.202 28.3937 151.178 28.2494 151.146 28.1131C151.113 27.9768 151.089 27.8405 151.065 27.6962C151.041 27.8405 151.017 27.9768 150.993 28.1051C150.969 28.2414 150.937 28.3777 150.913 28.522C150.889 28.6664 150.849 28.8267 150.809 28.9871L149.911 33.0201H152.252V33.0282Z" fill="#A4A2A1"/>
<defs>
<linearGradient id="paint0_linear_34_59" x1="17.575" y1="41.2373" x2="17.575" y2="2.64783" gradientUnits="userSpaceOnUse">
<stop stop-color="#A3A3A1"/>
<stop offset="1" stop-color="#656564"/>
</linearGradient>
<linearGradient id="paint1_linear_34_59" x1="29.3307" y1="34.7247" x2="28.7609" y2="6.71765" gradientUnits="userSpaceOnUse">
<stop stop-color="#AAA9A7"/>
<stop offset="0.5893" stop-color="#6D6D6B"/>
<stop offset="1" stop-color="#474746"/>
</linearGradient>
</defs>
</svg>
